<svg width="560" height="190" viewBox="0 0 560 190" fill="none" xmlns="http://www.w3.org/2000/svg">
<path d="M9 137H17V51H9V19H57.7085C64.6225 35.2262 67.872 53.2376 75.8935 69L94.4248 19H142V51H134V137H142V170H91V137H100V85H99.2325L75.6231 147.023C66.6026 127.121 60.448 105.641 52.4982 85.1648L52 137H60V170H9V137ZM147 137H152.786L172.433 19H227V19.9215L246.038 137H252V170H205V137H211V124H188V137H194V170H147V137ZM199.633 59.2995L192 105H207C205.323 89.7153 202.769 74.3734 199.633 59.2995ZM257 137H265V51H257V19H334.547L350 34.5442V82.5578L337.194 95.2499L350 107.229V137H358V170H313V110H302V137H308V170H257V137ZM313 52.1851L301.997 51.5L302 87H313V52.1851ZM363 153.458V34.4531L378.544 19H429.547L445 34.5442V81H411V52H399V137H411V108H445V154.547L429.456 170H379.456L363 153.458ZM450 137C452.018 137.023 454.071 137.101 456 136.615C462.159 97.5053 468.878 58.4844 475 19.3687L529.463 19.5L548.449 137H555V170H507V137H514V124H491V137H497V170H450V137ZM502.635 58.9654L494.187 105H510.25L502.635 58.9654Z" fill="black"/>
</svg>
