<svg width="546" height="151" viewBox="0 0 546 151" fill="none" xmlns="http://www.w3.org/2000/svg">
<path d="M0 118H8V32H0V0H48.7085C55.6225 16.2262 58.872 34.2376 66.8935 50L85.4248 0H133V32H125V118H133V151H82V118H91V66H90.2325L66.6231 128.023C57.6026 108.121 51.448 86.6408 43.4982 66.1648L43 118H51V151H0V118ZM138 118H143.786L163.433 0H218V0.921492L237.038 118H243V151H196V118H202V105H179V118H185V151H138V118ZM190.633 40.2995L183 86H198C196.323 70.7153 193.769 55.3734 190.633 40.2995ZM248 118H256V32H248V0H325.547L341 15.5442V63.5578L328.194 76.2499L341 88.2293V118H349V151H304V91H293V118H299V151H248V118ZM304 33.1851L292.997 32.5L293 68H304V33.1851ZM354 134.458V15.4531L369.544 0H420.547L436 15.5442V62H402V33H390V118H402V89H436V135.547L420.456 151H370.456L354 134.458ZM441 118C443.018 118.023 445.071 118.101 447 117.615C453.159 78.5053 459.878 39.4844 466 0.368744L520.463 0.5L539.449 118H546V151H498V118H505V105H482V118H488V151H441V118ZM493.635 39.9654L485.187 86H501.25L493.635 39.9654Z" fill="white"/>
</svg>
